<?xml version="1.0" encoding="UTF-8"?>
<svg id="Layer_1" data-name="Layer 1" xmlns="http://www.w3.org/2000/svg" viewBox="0 0 16 16">
  <path d="M9.4,8L15.7,1.7c.2-.2,.3-.4,.3-.7s-.1-.5-.3-.7c-.2-.2-.4-.3-.7-.3s-.5,.1-.7,.3l-6.3,6.3L1.7,.3c-.2-.2-.4-.3-.7-.3S.5,.1,.3,.3C.1,.5,0,.7,0,1s.1,.5,.3,.7l6.3,6.3L.3,14.3c0,0-.2,.2-.2,.3,0,.1,0,.3,0,.4s0,.3,0,.4c0,.1,.1,.2,.2,.3,0,0,.2,.2,.3,.2s.3,0,.4,0,.3,0,.4,0,.2-.1,.3-.2l6.3-6.3,6.3,6.3c0,0,.2,.2,.3,.2,.1,0,.3,0,.4,0s.3,0,.4,0c.1,0,.2-.1,.3-.2,0,0,.2-.2,.2-.3,0-.1,0-.3,0-.4s0-.3,0-.4c0-.1-.1-.2-.2-.3l-6.3-6.3Z"/>
</svg>