<svg xmlns="http://www.w3.org/2000/svg" xmlns:xlink="http://www.w3.org/1999/xlink" width="130" zoomAndPan="magnify" viewBox="0 0 97.5 30.000001" height="40" preserveAspectRatio="xMidYMid meet" version="1.0"><defs><g/><clipPath id="df0d675bbb"><path d="M 17.566406 2.503906 L 39.453125 2.503906 L 39.453125 26.578125 L 17.566406 26.578125 Z M 17.566406 2.503906 " clip-rule="nonzero"/></clipPath></defs><g clip-path="url(#df0d675bbb)"><path fill="#ff5722" d="M 37.351562 14.820312 C 37.351562 15.453125 36.828125 15.96875 36.1875 15.96875 L 34.199219 15.96875 L 34.199219 20.742188 C 34.199219 21.375 33.675781 21.890625 33.035156 21.890625 L 32.472656 21.890625 C 31.832031 21.890625 31.308594 21.375 31.308594 20.742188 L 31.308594 15.96875 L 24.941406 15.96875 L 24.941406 20.742188 C 24.941406 21.375 24.417969 21.890625 23.773438 21.890625 L 23.214844 21.890625 C 22.574219 21.890625 22.050781 21.375 22.050781 20.742188 L 22.050781 8.34375 C 22.050781 7.710938 22.574219 7.195312 23.214844 7.195312 L 23.773438 7.195312 C 24.417969 7.195312 24.941406 7.710938 24.941406 8.34375 L 24.941406 13.117188 L 31.308594 13.117188 L 31.308594 8.34375 C 31.308594 7.710938 31.832031 7.195312 32.472656 7.195312 L 33.035156 7.195312 C 33.675781 7.195312 34.199219 7.710938 34.199219 8.34375 L 34.199219 13.117188 L 36.1875 13.117188 C 36.828125 13.117188 37.351562 13.632812 37.351562 14.265625 Z M 36.441406 2.507812 L 20.574219 2.507812 C 18.914062 2.507812 17.566406 3.835938 17.566406 5.476562 L 17.566406 23.609375 C 17.566406 25.25 18.914062 26.578125 20.574219 26.578125 L 36.441406 26.578125 C 38.105469 26.578125 39.449219 25.25 39.449219 23.609375 L 39.449219 5.476562 C 39.449219 3.835938 38.105469 2.507812 36.441406 2.507812 " fill-opacity="1" fill-rule="nonzero"/></g><g fill="#000000" fill-opacity="1"><g transform="translate(44.638355, 15.330246)"><g><path d="M 4.359375 -5.90625 L 5.796875 -5.90625 L 5.796875 0 L 4.359375 0 L 4.359375 -2.453125 L 2.078125 -2.453125 L 2.078125 0 L 0.625 0 L 0.625 -5.90625 L 2.078125 -5.90625 L 2.078125 -3.546875 L 4.359375 -3.546875 Z M 4.359375 -5.90625 "/></g></g></g><g fill="#000000" fill-opacity="1"><g transform="translate(50.694428, 15.330246)"><g><path d="M 2.625 0.0625 C 1.9375 0.0625 1.375 -0.15625 0.9375 -0.59375 C 0.5 -1.039062 0.28125 -1.628906 0.28125 -2.359375 C 0.28125 -3.085938 0.5 -3.664062 0.9375 -4.09375 C 1.375 -4.53125 1.9375 -4.75 2.625 -4.75 C 3.3125 -4.75 3.882812 -4.535156 4.34375 -4.109375 C 4.800781 -3.679688 5.03125 -3.085938 5.03125 -2.328125 C 5.03125 -2.171875 5.019531 -2.019531 5 -1.875 L 1.765625 -1.875 C 1.785156 -1.664062 1.875 -1.492188 2.03125 -1.359375 C 2.195312 -1.234375 2.367188 -1.171875 2.546875 -1.171875 C 2.734375 -1.171875 2.867188 -1.1875 2.953125 -1.21875 C 3.046875 -1.257812 3.113281 -1.296875 3.15625 -1.328125 C 3.195312 -1.367188 3.25 -1.429688 3.3125 -1.515625 L 4.875 -1.515625 C 4.738281 -1.046875 4.46875 -0.664062 4.0625 -0.375 C 3.664062 -0.0820312 3.1875 0.0625 2.625 0.0625 Z M 3.53125 -2.78125 C 3.507812 -3 3.410156 -3.175781 3.234375 -3.3125 C 3.066406 -3.445312 2.867188 -3.515625 2.640625 -3.515625 C 2.410156 -3.515625 2.21875 -3.445312 2.0625 -3.3125 C 1.90625 -3.175781 1.804688 -3 1.765625 -2.78125 Z M 3.53125 -2.78125 "/></g></g></g><g fill="#000000" fill-opacity="1"><g transform="translate(55.647103, 15.330246)"><g><path d="M 0.625 0 L 0.625 -6.234375 L 2.078125 -6.234375 L 2.078125 0 Z M 0.625 0 "/></g></g></g><g fill="#000000" fill-opacity="1"><g transform="translate(57.980245, 15.330246)"><g><path d="M 1.9375 -5.21875 C 1.78125 -5.0625 1.582031 -4.984375 1.34375 -4.984375 C 1.113281 -4.984375 0.914062 -5.0625 0.75 -5.21875 C 0.582031 -5.382812 0.5 -5.585938 0.5 -5.828125 C 0.5 -6.066406 0.582031 -6.265625 0.75 -6.421875 C 0.914062 -6.585938 1.113281 -6.671875 1.34375 -6.671875 C 1.582031 -6.671875 1.78125 -6.585938 1.9375 -6.421875 C 2.101562 -6.265625 2.1875 -6.066406 2.1875 -5.828125 C 2.1875 -5.585938 2.101562 -5.382812 1.9375 -5.21875 Z M 0.625 0 L 0.625 -4.703125 L 2.078125 -4.703125 L 2.078125 0 Z M 0.625 0 "/></g></g></g><g fill="#000000" fill-opacity="1"><g transform="translate(60.313387, 15.330246)"><g><path d="M 3.453125 -1.46875 C 3.640625 -1.675781 3.734375 -1.96875 3.734375 -2.34375 C 3.734375 -2.726562 3.632812 -3.019531 3.4375 -3.21875 C 3.25 -3.414062 3.019531 -3.515625 2.75 -3.515625 C 2.476562 -3.515625 2.242188 -3.414062 2.046875 -3.21875 C 1.859375 -3.019531 1.765625 -2.726562 1.765625 -2.34375 C 1.765625 -1.96875 1.863281 -1.675781 2.0625 -1.46875 C 2.257812 -1.269531 2.492188 -1.171875 2.765625 -1.171875 C 3.035156 -1.171875 3.265625 -1.269531 3.453125 -1.46875 Z M 1 -0.59375 C 0.53125 -1.039062 0.296875 -1.625 0.296875 -2.34375 C 0.296875 -3.070312 0.53125 -3.65625 1 -4.09375 C 1.46875 -4.53125 2.050781 -4.75 2.75 -4.75 C 3.445312 -4.75 4.03125 -4.53125 4.5 -4.09375 C 4.96875 -3.65625 5.203125 -3.070312 5.203125 -2.34375 C 5.203125 -1.625 4.96875 -1.039062 4.5 -0.59375 C 4.039062 -0.15625 3.460938 0.0625 2.765625 0.0625 C 2.066406 0.0625 1.476562 -0.15625 1 -0.59375 Z M 1 -0.59375 "/></g></g></g><g fill="#000000" fill-opacity="1"><g transform="translate(65.442941, 15.330246)"><g><path d="M 2.078125 -4.703125 L 2.078125 -4.015625 C 2.367188 -4.503906 2.84375 -4.75 3.5 -4.75 C 4.03125 -4.75 4.460938 -4.566406 4.796875 -4.203125 C 5.140625 -3.847656 5.3125 -3.363281 5.3125 -2.75 L 5.3125 0 L 3.875 0 L 3.875 -2.546875 C 3.875 -2.847656 3.789062 -3.082031 3.625 -3.25 C 3.46875 -3.414062 3.25 -3.5 2.96875 -3.5 C 2.6875 -3.5 2.46875 -3.414062 2.3125 -3.25 C 2.15625 -3.082031 2.078125 -2.847656 2.078125 -2.546875 L 2.078125 0 L 0.625 0 L 0.625 -4.703125 Z M 2.078125 -4.703125 "/></g></g></g><g fill="#ff5722" fill-opacity="1"><g transform="translate(52.244608, 19.611789)"><g><path d="M 0.71875 0.015625 C 0.59375 0.015625 0.472656 0 0.359375 -0.03125 C 0.242188 -0.0703125 0.15625 -0.125 0.09375 -0.1875 L 0.1875 -0.359375 C 0.238281 -0.304688 0.3125 -0.257812 0.40625 -0.21875 C 0.507812 -0.1875 0.613281 -0.171875 0.71875 -0.171875 C 0.851562 -0.171875 0.953125 -0.191406 1.015625 -0.234375 C 1.078125 -0.285156 1.109375 -0.347656 1.109375 -0.421875 C 1.109375 -0.484375 1.085938 -0.53125 1.046875 -0.5625 C 1.015625 -0.59375 0.972656 -0.617188 0.921875 -0.640625 C 0.867188 -0.660156 0.796875 -0.679688 0.703125 -0.703125 C 0.578125 -0.734375 0.476562 -0.765625 0.40625 -0.796875 C 0.332031 -0.828125 0.269531 -0.867188 0.21875 -0.921875 C 0.164062 -0.984375 0.140625 -1.066406 0.140625 -1.171875 C 0.140625 -1.253906 0.160156 -1.332031 0.203125 -1.40625 C 0.242188 -1.476562 0.3125 -1.535156 0.40625 -1.578125 C 0.5 -1.617188 0.613281 -1.640625 0.75 -1.640625 C 0.84375 -1.640625 0.9375 -1.625 1.03125 -1.59375 C 1.125 -1.570312 1.207031 -1.539062 1.28125 -1.5 L 1.203125 -1.3125 C 1.128906 -1.351562 1.050781 -1.382812 0.96875 -1.40625 C 0.894531 -1.425781 0.820312 -1.4375 0.75 -1.4375 C 0.625 -1.4375 0.523438 -1.410156 0.453125 -1.359375 C 0.390625 -1.316406 0.359375 -1.257812 0.359375 -1.1875 C 0.359375 -1.125 0.375 -1.078125 0.40625 -1.046875 C 0.445312 -1.015625 0.492188 -0.988281 0.546875 -0.96875 C 0.609375 -0.945312 0.6875 -0.925781 0.78125 -0.90625 C 0.894531 -0.875 0.988281 -0.84375 1.0625 -0.8125 C 1.144531 -0.789062 1.210938 -0.75 1.265625 -0.6875 C 1.316406 -0.625 1.34375 -0.539062 1.34375 -0.4375 C 1.34375 -0.351562 1.316406 -0.273438 1.265625 -0.203125 C 1.222656 -0.140625 1.15625 -0.0859375 1.0625 -0.046875 C 0.96875 -0.00390625 0.851562 0.015625 0.71875 0.015625 Z M 0.71875 0.015625 "/></g></g></g><g fill="#ff5722" fill-opacity="1"><g transform="translate(54.141154, 19.611789)"><g><path d="M 0.5625 -1.421875 L 0.015625 -1.421875 L 0.015625 -1.625 L 1.34375 -1.625 L 1.34375 -1.421875 L 0.796875 -1.421875 L 0.796875 0 L 0.5625 0 Z M 0.5625 -1.421875 "/></g></g></g><g fill="#ff5722" fill-opacity="1"><g transform="translate(55.959159, 19.611789)"><g><path d="M 0.90625 0.015625 C 0.695312 0.015625 0.53125 -0.0390625 0.40625 -0.15625 C 0.289062 -0.28125 0.234375 -0.460938 0.234375 -0.703125 L 0.234375 -1.625 L 0.453125 -1.625 L 0.453125 -0.703125 C 0.453125 -0.359375 0.609375 -0.1875 0.921875 -0.1875 C 1.066406 -0.1875 1.175781 -0.226562 1.25 -0.3125 C 1.332031 -0.394531 1.375 -0.523438 1.375 -0.703125 L 1.375 -1.625 L 1.59375 -1.625 L 1.59375 -0.703125 C 1.59375 -0.460938 1.53125 -0.28125 1.40625 -0.15625 C 1.289062 -0.0390625 1.125 0.015625 0.90625 0.015625 Z M 0.90625 0.015625 "/></g></g></g><g fill="#ff5722" fill-opacity="1"><g transform="translate(58.248412, 19.611789)"><g><path d="M 0.25 -1.625 L 0.921875 -1.625 C 1.097656 -1.625 1.25 -1.585938 1.375 -1.515625 C 1.507812 -1.453125 1.613281 -1.359375 1.6875 -1.234375 C 1.757812 -1.109375 1.796875 -0.96875 1.796875 -0.8125 C 1.796875 -0.65625 1.757812 -0.515625 1.6875 -0.390625 C 1.613281 -0.265625 1.507812 -0.164062 1.375 -0.09375 C 1.25 -0.03125 1.097656 0 0.921875 0 L 0.25 0 Z M 0.90625 -0.203125 C 1.039062 -0.203125 1.15625 -0.226562 1.25 -0.28125 C 1.351562 -0.332031 1.429688 -0.398438 1.484375 -0.484375 C 1.535156 -0.578125 1.5625 -0.6875 1.5625 -0.8125 C 1.5625 -0.925781 1.535156 -1.03125 1.484375 -1.125 C 1.429688 -1.21875 1.351562 -1.289062 1.25 -1.34375 C 1.15625 -1.394531 1.039062 -1.421875 0.90625 -1.421875 L 0.46875 -1.421875 L 0.46875 -0.203125 Z M 0.90625 -0.203125 "/></g></g></g><g fill="#ff5722" fill-opacity="1"><g transform="translate(60.618517, 19.611789)"><g><path d="M 0.25 -1.625 L 0.46875 -1.625 L 0.46875 0 L 0.25 0 Z M 0.25 -1.625 "/></g></g></g><g fill="#ff5722" fill-opacity="1"><g transform="translate(61.796639, 19.611789)"><g><path d="M 0.96875 0.015625 C 0.8125 0.015625 0.664062 -0.0195312 0.53125 -0.09375 C 0.394531 -0.164062 0.289062 -0.265625 0.21875 -0.390625 C 0.144531 -0.515625 0.109375 -0.65625 0.109375 -0.8125 C 0.109375 -0.96875 0.144531 -1.109375 0.21875 -1.234375 C 0.289062 -1.359375 0.394531 -1.457031 0.53125 -1.53125 C 0.664062 -1.601562 0.8125 -1.640625 0.96875 -1.640625 C 1.132812 -1.640625 1.28125 -1.601562 1.40625 -1.53125 C 1.539062 -1.457031 1.644531 -1.359375 1.71875 -1.234375 C 1.789062 -1.109375 1.828125 -0.96875 1.828125 -0.8125 C 1.828125 -0.65625 1.789062 -0.515625 1.71875 -0.390625 C 1.644531 -0.265625 1.539062 -0.164062 1.40625 -0.09375 C 1.28125 -0.0195312 1.132812 0.015625 0.96875 0.015625 Z M 0.96875 -0.1875 C 1.09375 -0.1875 1.203125 -0.210938 1.296875 -0.265625 C 1.390625 -0.316406 1.460938 -0.390625 1.515625 -0.484375 C 1.566406 -0.585938 1.59375 -0.695312 1.59375 -0.8125 C 1.59375 -0.925781 1.566406 -1.03125 1.515625 -1.125 C 1.460938 -1.21875 1.390625 -1.289062 1.296875 -1.34375 C 1.203125 -1.40625 1.09375 -1.4375 0.96875 -1.4375 C 0.851562 -1.4375 0.742188 -1.40625 0.640625 -1.34375 C 0.546875 -1.289062 0.472656 -1.21875 0.421875 -1.125 C 0.367188 -1.03125 0.34375 -0.925781 0.34375 -0.8125 C 0.34375 -0.695312 0.367188 -0.585938 0.421875 -0.484375 C 0.472656 -0.390625 0.546875 -0.316406 0.640625 -0.265625 C 0.742188 -0.210938 0.851562 -0.1875 0.96875 -0.1875 Z M 0.96875 -0.1875 "/></g></g></g></svg>