<?xml version="1.0" encoding="UTF-8"?>
<svg id="Layer_1" data-name="Layer 1" xmlns="http://www.w3.org/2000/svg" viewBox="0 0 21 21">
  <defs>
    <style>
      .cls-1 {
        fill: orange;
      }
    </style>
  </defs>
  <path class="cls-1" d="M20.9,6.2c0-1.1-.2-1.9-.5-2.5-.3-.7-.7-1.3-1.2-1.9-.5-.5-1.2-.9-1.9-1.2-.7-.3-1.4-.4-2.5-.5-1.1,0-1.5,0-4.3,0s-3.2,0-4.3,0c-1.1,0-1.9,.2-2.5,.5-.7,.3-1.3,.7-1.9,1.2-.5,.5-.9,1.2-1.2,1.9-.3,.7-.4,1.4-.5,2.5,0,1.1,0,1.5,0,4.3s0,3.2,0,4.3c0,1.1,.2,1.9,.5,2.5,.3,.7,.7,1.3,1.2,1.9,.5,.5,1.2,.9,1.9,1.2,.7,.3,1.4,.4,2.5,.5,1.1,0,1.5,0,4.3,0s3.2,0,4.3,0c1.1,0,1.9-.2,2.5-.5,1.4-.5,2.5-1.7,3.1-3.1,.3-.7,.4-1.4,.5-2.5,0-1.1,0-1.5,0-4.3s0-3.2,0-4.3Zm-1.9,8.6c0,1-.2,1.6-.4,1.9-.4,.9-1.1,1.6-2,2-.4,.1-.9,.3-1.9,.4-1.1,0-1.4,0-4.2,0s-3.1,0-4.2,0c-1,0-1.6-.2-1.9-.4-.5-.2-.9-.4-1.2-.8-.3-.3-.6-.8-.8-1.2-.1-.4-.3-.9-.4-1.9,0-1.1,0-1.4,0-4.2s0-3.1,0-4.2c0-1,.2-1.6,.4-1.9,.2-.5,.4-.9,.8-1.2,.3-.3,.8-.6,1.2-.8,.4-.1,.9-.3,1.9-.4,1.1,0,1.4,0,4.2,0s3.1,0,4.2,0c1,0,1.6,.2,1.9,.4,.5,.2,.9,.4,1.2,.8,.3,.3,.6,.8,.8,1.2,.1,.4,.3,.9,.4,1.9,0,1.1,0,1.4,0,4.2s0,3.1,0,4.2Z"/>
  <path class="cls-1" d="M10.5,6c-2.5,0-4.5,2-4.5,4.5s2,4.5,4.5,4.5,4.5-2,4.5-4.5-2-4.5-4.5-4.5Zm0,7.4c-1.6,0-2.9-1.3-2.9-2.9s1.3-2.9,2.9-2.9,2.9,1.3,2.9,2.9-1.3,2.9-2.9,2.9Z"/>
  <path class="cls-1" d="M18,5.5c0,.8-.7,1.5-1.5,1.5s-1.5-.7-1.5-1.5,.7-1.5,1.5-1.5,1.5,.7,1.5,1.5Z"/>
</svg>