<svg xmlns="http://www.w3.org/2000/svg" xmlns:xlink="http://www.w3.org/1999/xlink" width="300" zoomAndPan="magnify" viewBox="0 0 224.87999 80.249996" height="107" preserveAspectRatio="xMidYMid meet" version="1.0"><defs><g/><clipPath id="6fee07f0ca"><path d="M 0.980469 0 L 223.78125 0 L 223.78125 79.507812 L 0.980469 79.507812 Z M 0.980469 0 " clip-rule="nonzero"/></clipPath><clipPath id="7f82988ea9"><path d="M 15.164062 0 L 86.496094 0 L 86.496094 79.507812 L 15.164062 79.507812 Z M 15.164062 0 " clip-rule="nonzero"/></clipPath></defs><g clip-path="url(#6fee07f0ca)"><path fill="#ffffff" d="M 0.980469 0 L 223.898438 0 L 223.898438 86.9375 L 0.980469 86.9375 Z M 0.980469 0 " fill-opacity="1" fill-rule="nonzero"/><path fill="#ffffff" d="M 0.980469 0 L 223.898438 0 L 223.898438 79.507812 L 0.980469 79.507812 Z M 0.980469 0 " fill-opacity="1" fill-rule="nonzero"/><path fill="#ffffff" d="M 0.980469 0 L 223.898438 0 L 223.898438 79.507812 L 0.980469 79.507812 Z M 0.980469 0 " fill-opacity="1" fill-rule="nonzero"/></g><g clip-path="url(#7f82988ea9)"><path fill="#ff5722" d="M 79.640625 40.671875 C 79.640625 42.769531 77.941406 44.46875 75.847656 44.46875 L 69.363281 44.46875 L 69.363281 60.226562 C 69.363281 62.324219 67.667969 64.023438 65.570312 64.023438 L 63.746094 64.023438 C 61.652344 64.023438 59.953125 62.324219 59.953125 60.226562 L 59.953125 44.46875 L 39.1875 44.46875 L 39.1875 60.226562 C 39.1875 62.324219 37.488281 64.023438 35.394531 64.023438 L 33.570312 64.023438 C 31.476562 64.023438 29.777344 62.324219 29.777344 60.226562 L 29.777344 19.292969 C 29.777344 17.195312 31.476562 15.496094 33.570312 15.496094 L 35.394531 15.496094 C 37.488281 15.496094 39.1875 17.195312 39.1875 19.292969 L 39.1875 35.050781 L 59.953125 35.050781 L 59.953125 19.292969 C 59.953125 17.195312 61.652344 15.496094 63.746094 15.496094 L 65.570312 15.496094 C 67.667969 15.496094 69.363281 17.195312 69.363281 19.292969 L 69.363281 35.050781 L 75.847656 35.050781 C 77.941406 35.050781 79.640625 36.75 79.640625 38.847656 Z M 76.683594 0.015625 L 24.957031 0.015625 C 19.542969 0.015625 15.15625 4.40625 15.15625 9.820312 L 15.15625 69.699219 C 15.15625 75.113281 19.542969 79.503906 24.957031 79.503906 L 76.683594 79.503906 C 82.09375 79.503906 86.484375 75.113281 86.484375 69.699219 L 86.484375 9.820312 C 86.484375 4.40625 82.09375 0.015625 76.683594 0.015625 " fill-opacity="1" fill-rule="nonzero"/></g><g fill="#000000" fill-opacity="1"><g transform="translate(104.199272, 42.186318)"><g><path d="M 14.328125 -19.453125 L 19.0625 -19.453125 L 19.0625 0 L 14.328125 0 L 14.328125 -8.0625 L 6.8125 -8.0625 L 6.8125 0 L 2.078125 0 L 2.078125 -19.453125 L 6.8125 -19.453125 L 6.8125 -11.65625 L 14.328125 -11.65625 Z M 14.328125 -19.453125 "/></g></g></g><g fill="#000000" fill-opacity="1"><g transform="translate(124.118237, 42.186318)"><g><path d="M 8.640625 0.1875 C 6.390625 0.1875 4.539062 -0.535156 3.09375 -1.984375 C 1.65625 -3.429688 0.9375 -5.351562 0.9375 -7.75 C 0.9375 -10.15625 1.648438 -12.066406 3.078125 -13.484375 C 4.515625 -14.910156 6.367188 -15.625 8.640625 -15.625 C 10.910156 -15.625 12.789062 -14.921875 14.28125 -13.515625 C 15.78125 -12.109375 16.53125 -10.160156 16.53125 -7.671875 C 16.53125 -7.140625 16.492188 -6.640625 16.421875 -6.171875 L 5.796875 -6.171875 C 5.878906 -5.492188 6.179688 -4.9375 6.703125 -4.5 C 7.222656 -4.0625 7.78125 -3.84375 8.375 -3.84375 C 8.976562 -3.84375 9.425781 -3.898438 9.71875 -4.015625 C 10.019531 -4.140625 10.238281 -4.265625 10.375 -4.390625 C 10.507812 -4.515625 10.691406 -4.710938 10.921875 -4.984375 L 16.046875 -4.984375 C 15.597656 -3.429688 14.707031 -2.179688 13.375 -1.234375 C 12.050781 -0.285156 10.472656 0.1875 8.640625 0.1875 Z M 11.609375 -9.140625 C 11.535156 -9.859375 11.21875 -10.441406 10.65625 -10.890625 C 10.101562 -11.347656 9.445312 -11.578125 8.6875 -11.578125 C 7.9375 -11.578125 7.300781 -11.347656 6.78125 -10.890625 C 6.269531 -10.441406 5.945312 -9.859375 5.8125 -9.140625 Z M 11.609375 -9.140625 "/></g></g></g><g fill="#000000" fill-opacity="1"><g transform="translate(140.40803, 42.186318)"><g><path d="M 2.078125 0 L 2.078125 -20.5 L 6.8125 -20.5 L 6.8125 0 Z M 2.078125 0 "/></g></g></g><g fill="#000000" fill-opacity="1"><g transform="translate(148.081944, 42.186318)"><g><path d="M 6.390625 -17.203125 C 5.859375 -16.671875 5.203125 -16.40625 4.421875 -16.40625 C 3.648438 -16.40625 2.992188 -16.671875 2.453125 -17.203125 C 1.921875 -17.734375 1.65625 -18.390625 1.65625 -19.171875 C 1.65625 -19.960938 1.921875 -20.625 2.453125 -21.15625 C 2.992188 -21.695312 3.648438 -21.96875 4.421875 -21.96875 C 5.203125 -21.96875 5.859375 -21.695312 6.390625 -21.15625 C 6.929688 -20.625 7.203125 -19.960938 7.203125 -19.171875 C 7.203125 -18.390625 6.929688 -17.734375 6.390625 -17.203125 Z M 2.078125 0 L 2.078125 -15.453125 L 6.8125 -15.453125 L 6.8125 0 Z M 2.078125 0 "/></g></g></g><g fill="#000000" fill-opacity="1"><g transform="translate(155.755858, 42.186318)"><g><path d="M 11.359375 -4.84375 C 11.984375 -5.507812 12.296875 -6.46875 12.296875 -7.71875 C 12.296875 -8.976562 11.972656 -9.9375 11.328125 -10.59375 C 10.679688 -11.25 9.914062 -11.578125 9.03125 -11.578125 C 8.144531 -11.578125 7.382812 -11.25 6.75 -10.59375 C 6.113281 -9.9375 5.796875 -8.976562 5.796875 -7.71875 C 5.796875 -6.46875 6.117188 -5.507812 6.765625 -4.84375 C 7.421875 -4.175781 8.191406 -3.84375 9.078125 -3.84375 C 9.972656 -3.84375 10.734375 -4.175781 11.359375 -4.84375 Z M 3.3125 -2 C 1.75 -3.457031 0.96875 -5.375 0.96875 -7.75 C 0.96875 -10.132812 1.742188 -12.039062 3.296875 -13.46875 C 4.847656 -14.90625 6.769531 -15.625 9.0625 -15.625 C 11.351562 -15.625 13.269531 -14.90625 14.8125 -13.46875 C 16.351562 -12.039062 17.125 -10.132812 17.125 -7.75 C 17.125 -5.375 16.351562 -3.457031 14.8125 -2 C 13.28125 -0.539062 11.367188 0.1875 9.078125 0.1875 C 6.796875 0.1875 4.875 -0.539062 3.3125 -2 Z M 3.3125 -2 "/></g></g></g><g fill="#000000" fill-opacity="1"><g transform="translate(172.627422, 42.186318)"><g><path d="M 6.8125 -15.453125 L 6.8125 -13.1875 C 7.789062 -14.8125 9.351562 -15.625 11.5 -15.625 C 13.269531 -15.625 14.703125 -15.03125 15.796875 -13.84375 C 16.898438 -12.664062 17.453125 -11.0625 17.453125 -9.03125 L 17.453125 0 L 12.75 0 L 12.75 -8.390625 C 12.75 -9.390625 12.484375 -10.160156 11.953125 -10.703125 C 11.429688 -11.253906 10.707031 -11.53125 9.78125 -11.53125 C 8.851562 -11.53125 8.125 -11.253906 7.59375 -10.703125 C 7.070312 -10.160156 6.8125 -9.390625 6.8125 -8.390625 L 6.8125 0 L 2.078125 0 L 2.078125 -15.453125 Z M 6.8125 -15.453125 "/></g></g></g><g fill="#ff5722" fill-opacity="1"><g transform="translate(129.216754, 56.268702)"><g><path d="M 2.34375 0.0625 C 1.945312 0.0625 1.5625 0 1.1875 -0.125 C 0.8125 -0.25 0.519531 -0.410156 0.3125 -0.609375 L 0.59375 -1.203125 C 0.789062 -1.015625 1.046875 -0.863281 1.359375 -0.75 C 1.679688 -0.632812 2.007812 -0.578125 2.34375 -0.578125 C 2.78125 -0.578125 3.109375 -0.648438 3.328125 -0.796875 C 3.546875 -0.953125 3.65625 -1.15625 3.65625 -1.40625 C 3.65625 -1.582031 3.59375 -1.726562 3.46875 -1.84375 C 3.351562 -1.957031 3.207031 -2.046875 3.03125 -2.109375 C 2.863281 -2.171875 2.617188 -2.238281 2.296875 -2.3125 C 1.898438 -2.40625 1.578125 -2.5 1.328125 -2.59375 C 1.085938 -2.695312 0.878906 -2.847656 0.703125 -3.046875 C 0.523438 -3.242188 0.4375 -3.515625 0.4375 -3.859375 C 0.4375 -4.140625 0.507812 -4.394531 0.65625 -4.625 C 0.8125 -4.851562 1.039062 -5.035156 1.34375 -5.171875 C 1.644531 -5.304688 2.019531 -5.375 2.46875 -5.375 C 2.789062 -5.375 3.101562 -5.332031 3.40625 -5.25 C 3.707031 -5.175781 3.96875 -5.0625 4.1875 -4.90625 L 3.9375 -4.296875 C 3.707031 -4.441406 3.46875 -4.550781 3.21875 -4.625 C 2.96875 -4.695312 2.71875 -4.734375 2.46875 -4.734375 C 2.039062 -4.734375 1.71875 -4.65625 1.5 -4.5 C 1.289062 -4.34375 1.1875 -4.140625 1.1875 -3.890625 C 1.1875 -3.703125 1.242188 -3.550781 1.359375 -3.4375 C 1.484375 -3.320312 1.632812 -3.234375 1.8125 -3.171875 C 2 -3.109375 2.242188 -3.046875 2.546875 -2.984375 C 2.953125 -2.878906 3.273438 -2.78125 3.515625 -2.6875 C 3.753906 -2.59375 3.960938 -2.445312 4.140625 -2.25 C 4.316406 -2.050781 4.40625 -1.785156 4.40625 -1.453125 C 4.40625 -1.171875 4.328125 -0.914062 4.171875 -0.6875 C 4.023438 -0.457031 3.796875 -0.273438 3.484375 -0.140625 C 3.171875 -0.00390625 2.789062 0.0625 2.34375 0.0625 Z M 2.34375 0.0625 "/></g></g></g><g fill="#ff5722" fill-opacity="1"><g transform="translate(135.454666, 56.268702)"><g><path d="M 1.859375 -4.65625 L 0.03125 -4.65625 L 0.03125 -5.3125 L 4.421875 -5.3125 L 4.421875 -4.65625 L 2.609375 -4.65625 L 2.609375 0 L 1.859375 0 Z M 1.859375 -4.65625 "/></g></g></g><g fill="#ff5722" fill-opacity="1"><g transform="translate(141.434247, 56.268702)"><g><path d="M 3 0.0625 C 2.289062 0.0625 1.738281 -0.140625 1.34375 -0.546875 C 0.945312 -0.953125 0.75 -1.535156 0.75 -2.296875 L 0.75 -5.3125 L 1.515625 -5.3125 L 1.515625 -2.328125 C 1.515625 -1.179688 2.007812 -0.609375 3 -0.609375 C 3.488281 -0.609375 3.863281 -0.75 4.125 -1.03125 C 4.382812 -1.3125 4.515625 -1.742188 4.515625 -2.328125 L 4.515625 -5.3125 L 5.25 -5.3125 L 5.25 -2.296875 C 5.25 -1.523438 5.050781 -0.9375 4.65625 -0.53125 C 4.257812 -0.132812 3.707031 0.0625 3 0.0625 Z M 3 0.0625 "/></g></g></g><g fill="#ff5722" fill-opacity="1"><g transform="translate(148.963807, 56.268702)"><g><path d="M 0.796875 -5.3125 L 3.03125 -5.3125 C 3.59375 -5.3125 4.09375 -5.195312 4.53125 -4.96875 C 4.96875 -4.75 5.304688 -4.4375 5.546875 -4.03125 C 5.785156 -3.632812 5.90625 -3.175781 5.90625 -2.65625 C 5.90625 -2.132812 5.785156 -1.671875 5.546875 -1.265625 C 5.304688 -0.867188 4.96875 -0.554688 4.53125 -0.328125 C 4.09375 -0.109375 3.59375 0 3.03125 0 L 0.796875 0 Z M 2.984375 -0.65625 C 3.421875 -0.65625 3.800781 -0.738281 4.125 -0.90625 C 4.445312 -1.070312 4.695312 -1.304688 4.875 -1.609375 C 5.0625 -1.910156 5.15625 -2.257812 5.15625 -2.65625 C 5.15625 -3.050781 5.0625 -3.398438 4.875 -3.703125 C 4.695312 -4.003906 4.445312 -4.238281 4.125 -4.40625 C 3.800781 -4.570312 3.421875 -4.65625 2.984375 -4.65625 L 1.5625 -4.65625 L 1.5625 -0.65625 Z M 2.984375 -0.65625 "/></g></g></g><g fill="#ff5722" fill-opacity="1"><g transform="translate(156.759293, 56.268702)"><g><path d="M 0.796875 -5.3125 L 1.5625 -5.3125 L 1.5625 0 L 0.796875 0 Z M 0.796875 -5.3125 "/></g></g></g><g fill="#ff5722" fill-opacity="1"><g transform="translate(160.634243, 56.268702)"><g><path d="M 3.203125 0.0625 C 2.660156 0.0625 2.171875 -0.0507812 1.734375 -0.28125 C 1.304688 -0.519531 0.96875 -0.847656 0.71875 -1.265625 C 0.476562 -1.679688 0.359375 -2.144531 0.359375 -2.65625 C 0.359375 -3.164062 0.476562 -3.628906 0.71875 -4.046875 C 0.96875 -4.460938 1.304688 -4.785156 1.734375 -5.015625 C 2.171875 -5.253906 2.660156 -5.375 3.203125 -5.375 C 3.734375 -5.375 4.210938 -5.253906 4.640625 -5.015625 C 5.066406 -4.785156 5.398438 -4.460938 5.640625 -4.046875 C 5.890625 -3.640625 6.015625 -3.175781 6.015625 -2.65625 C 6.015625 -2.144531 5.890625 -1.679688 5.640625 -1.265625 C 5.398438 -0.847656 5.066406 -0.519531 4.640625 -0.28125 C 4.210938 -0.0507812 3.734375 0.0625 3.203125 0.0625 Z M 3.203125 -0.609375 C 3.585938 -0.609375 3.9375 -0.695312 4.25 -0.875 C 4.5625 -1.050781 4.804688 -1.296875 4.984375 -1.609375 C 5.160156 -1.921875 5.25 -2.269531 5.25 -2.65625 C 5.25 -3.039062 5.160156 -3.390625 4.984375 -3.703125 C 4.804688 -4.015625 4.5625 -4.257812 4.25 -4.4375 C 3.9375 -4.613281 3.585938 -4.703125 3.203125 -4.703125 C 2.804688 -4.703125 2.445312 -4.613281 2.125 -4.4375 C 1.8125 -4.257812 1.566406 -4.015625 1.390625 -3.703125 C 1.210938 -3.390625 1.125 -3.039062 1.125 -2.65625 C 1.125 -2.269531 1.210938 -1.921875 1.390625 -1.609375 C 1.566406 -1.296875 1.8125 -1.050781 2.125 -0.875 C 2.445312 -0.695312 2.804688 -0.609375 3.203125 -0.609375 Z M 3.203125 -0.609375 "/></g></g></g></svg>