<svg xmlns="http://www.w3.org/2000/svg" xmlns:xlink="http://www.w3.org/1999/xlink" width="300" zoomAndPan="magnify" viewBox="0 0 224.87999 80.249996" height="107" preserveAspectRatio="xMidYMid meet" version="1.0"><defs><g/><clipPath id="4db6aff3c9"><path d="M 0.980469 0 L 223.78125 0 L 223.78125 79.507812 L 0.980469 79.507812 Z M 0.980469 0 " clip-rule="nonzero"/></clipPath><clipPath id="eb9b2935f9"><path d="M 0.980469 0 L 72.316406 0 L 72.316406 79.507812 L 0.980469 79.507812 Z M 0.980469 0 " clip-rule="nonzero"/></clipPath></defs><g clip-path="url(#4db6aff3c9)"><path fill="#ffffff" d="M 0.980469 0 L 223.898438 0 L 223.898438 86.9375 L 0.980469 86.9375 Z M 0.980469 0 " fill-opacity="1" fill-rule="nonzero"/><path fill="#ffffff" d="M 0.980469 0 L 223.898438 0 L 223.898438 79.507812 L 0.980469 79.507812 Z M 0.980469 0 " fill-opacity="1" fill-rule="nonzero"/><path fill="#ffffff" d="M 0.980469 0 L 223.898438 0 L 223.898438 79.507812 L 0.980469 79.507812 Z M 0.980469 0 " fill-opacity="1" fill-rule="nonzero"/></g><g clip-path="url(#eb9b2935f9)"><path fill="#ff5722" d="M 65.460938 40.671875 C 65.460938 42.769531 63.761719 44.46875 61.667969 44.46875 L 55.183594 44.46875 L 55.183594 60.226562 C 55.183594 62.324219 53.484375 64.023438 51.390625 64.023438 L 49.566406 64.023438 C 47.46875 64.023438 45.769531 62.324219 45.769531 60.226562 L 45.769531 44.46875 L 25.007812 44.46875 L 25.007812 60.226562 C 25.007812 62.324219 23.308594 64.023438 21.214844 64.023438 L 19.390625 64.023438 C 17.292969 64.023438 15.59375 62.324219 15.59375 60.226562 L 15.59375 19.292969 C 15.59375 17.195312 17.292969 15.496094 19.390625 15.496094 L 21.214844 15.496094 C 23.308594 15.496094 25.007812 17.195312 25.007812 19.292969 L 25.007812 35.050781 L 45.769531 35.050781 L 45.769531 19.292969 C 45.769531 17.195312 47.46875 15.496094 49.566406 15.496094 L 51.390625 15.496094 C 53.484375 15.496094 55.183594 17.195312 55.183594 19.292969 L 55.183594 35.050781 L 61.667969 35.050781 C 63.761719 35.050781 65.460938 36.75 65.460938 38.847656 Z M 62.503906 0.015625 L 10.773438 0.015625 C 5.363281 0.015625 0.976562 4.40625 0.976562 9.820312 L 0.976562 69.699219 C 0.976562 75.113281 5.363281 79.503906 10.773438 79.503906 L 62.503906 79.503906 C 67.914062 79.503906 72.300781 75.113281 72.300781 69.699219 L 72.300781 9.820312 C 72.300781 4.40625 67.914062 0.015625 62.503906 0.015625 " fill-opacity="1" fill-rule="nonzero"/></g><g fill="#000000" fill-opacity="1"><g transform="translate(81.600319, 34.881976)"><g><path d="M 19.765625 -26.828125 L 26.296875 -26.828125 L 26.296875 0 L 19.765625 0 L 19.765625 -11.125 L 9.40625 -11.125 L 9.40625 0 L 2.859375 0 L 2.859375 -26.828125 L 9.40625 -26.828125 L 9.40625 -16.09375 L 19.765625 -16.09375 Z M 19.765625 -26.828125 "/></g></g></g><g fill="#000000" fill-opacity="1"><g transform="translate(109.079495, 34.881976)"><g><path d="M 19.109375 -26.90625 L 19.109375 -21.9375 L 9.40625 -21.9375 L 9.40625 -16.171875 L 17.96875 -16.171875 L 17.96875 -11.203125 L 9.40625 -11.203125 L 9.40625 -4.96875 L 19.109375 -4.96875 L 19.109375 0 L 2.859375 0 L 2.859375 -26.90625 Z M 19.109375 -26.90625 "/></g></g></g><g fill="#000000" fill-opacity="1"><g transform="translate(129.258903, 34.881976)"><g><path d="M 2.859375 -26.828125 L 9.40625 -26.828125 L 9.40625 -4.96875 L 17.546875 -4.96875 L 17.546875 0 L 2.859375 0 Z M 2.859375 -26.828125 "/></g></g></g><g fill="#000000" fill-opacity="1"><g transform="translate(145.884017, 34.881976)"><g><path d="M 2.859375 0 L 2.859375 -26.828125 L 9.40625 -26.828125 L 9.40625 0 Z M 2.859375 0 "/></g></g></g><g fill="#000000" fill-opacity="1"><g transform="translate(156.470553, 34.881976)"><g><path d="M 20.1875 -7.859375 C 21.476562 -9.265625 22.125 -11.140625 22.125 -13.484375 C 22.125 -15.828125 21.476562 -17.703125 20.1875 -19.109375 C 18.90625 -20.515625 17.1875 -21.21875 15.03125 -21.21875 C 12.882812 -21.21875 11.164062 -20.515625 9.875 -19.109375 C 8.59375 -17.703125 7.953125 -15.828125 7.953125 -13.484375 C 7.953125 -11.140625 8.59375 -9.265625 9.875 -7.859375 C 11.164062 -6.460938 12.882812 -5.765625 15.03125 -5.765625 C 17.1875 -5.765625 18.90625 -6.460938 20.1875 -7.859375 Z M 5.28125 -3.625 C 2.625 -6.226562 1.296875 -9.515625 1.296875 -13.484375 C 1.296875 -17.460938 2.625 -20.742188 5.28125 -23.328125 C 7.945312 -25.921875 11.210938 -27.21875 15.078125 -27.21875 C 18.941406 -27.21875 22.191406 -25.921875 24.828125 -23.328125 C 27.460938 -20.742188 28.78125 -17.460938 28.78125 -13.484375 C 28.78125 -9.515625 27.453125 -6.226562 24.796875 -3.625 C 22.148438 -1.03125 18.898438 0.265625 15.046875 0.265625 C 11.203125 0.265625 7.945312 -1.03125 5.28125 -3.625 Z M 5.28125 -3.625 "/></g></g></g><g fill="#000000" fill-opacity="1"><g transform="translate(184.905197, 34.881976)"><g><path d="M 20.328125 -26.90625 L 26.875 -26.90625 L 26.875 0 L 20.328125 0 L 9.40625 -16.9375 L 9.40625 0 L 2.859375 0 L 2.859375 -26.90625 L 9.40625 -26.90625 L 20.328125 -9.96875 Z M 20.328125 -26.90625 "/></g></g></g><g fill="#ff5722" fill-opacity="1"><g transform="translate(87.471242, 64.650317)"><g><path d="M 7.53125 0.1875 C 6.25 0.1875 5.007812 -0.0078125 3.8125 -0.40625 C 2.613281 -0.800781 1.675781 -1.316406 1 -1.953125 L 1.90625 -3.84375 C 2.550781 -3.257812 3.378906 -2.785156 4.390625 -2.421875 C 5.410156 -2.054688 6.457031 -1.875 7.53125 -1.875 C 8.945312 -1.875 10.003906 -2.113281 10.703125 -2.59375 C 11.398438 -3.070312 11.75 -3.710938 11.75 -4.515625 C 11.75 -5.097656 11.554688 -5.570312 11.171875 -5.9375 C 10.796875 -6.300781 10.328125 -6.578125 9.765625 -6.765625 C 9.203125 -6.960938 8.410156 -7.1875 7.390625 -7.4375 C 6.097656 -7.738281 5.054688 -8.046875 4.265625 -8.359375 C 3.484375 -8.671875 2.8125 -9.144531 2.25 -9.78125 C 1.6875 -10.425781 1.40625 -11.289062 1.40625 -12.375 C 1.40625 -13.289062 1.644531 -14.113281 2.125 -14.84375 C 2.613281 -15.570312 3.34375 -16.15625 4.3125 -16.59375 C 5.289062 -17.03125 6.503906 -17.25 7.953125 -17.25 C 8.953125 -17.25 9.9375 -17.117188 10.90625 -16.859375 C 11.882812 -16.609375 12.726562 -16.238281 13.4375 -15.75 L 12.625 -13.796875 C 11.90625 -14.253906 11.140625 -14.597656 10.328125 -14.828125 C 9.515625 -15.066406 8.722656 -15.1875 7.953125 -15.1875 C 6.566406 -15.1875 5.523438 -14.929688 4.828125 -14.421875 C 4.140625 -13.921875 3.796875 -13.273438 3.796875 -12.484375 C 3.796875 -11.898438 3.988281 -11.421875 4.375 -11.046875 C 4.769531 -10.679688 5.253906 -10.394531 5.828125 -10.1875 C 6.410156 -9.988281 7.195312 -9.78125 8.1875 -9.5625 C 9.46875 -9.25 10.5 -8.9375 11.28125 -8.625 C 12.0625 -8.320312 12.734375 -7.851562 13.296875 -7.21875 C 13.859375 -6.582031 14.140625 -5.726562 14.140625 -4.65625 C 14.140625 -3.757812 13.894531 -2.941406 13.40625 -2.203125 C 12.914062 -1.460938 12.175781 -0.878906 11.1875 -0.453125 C 10.195312 -0.0234375 8.976562 0.1875 7.53125 0.1875 Z M 7.53125 0.1875 "/></g></g></g><g fill="#ff5722" fill-opacity="1"><g transform="translate(107.482284, 64.650317)"><g><path d="M 5.953125 -14.9375 L 0.09375 -14.9375 L 0.09375 -17.0625 L 14.203125 -17.0625 L 14.203125 -14.9375 L 8.359375 -14.9375 L 8.359375 0 L 5.953125 0 Z M 5.953125 -14.9375 "/></g></g></g><g fill="#ff5722" fill-opacity="1"><g transform="translate(126.664605, 64.650317)"><g><path d="M 9.625 0.1875 C 7.351562 0.1875 5.582031 -0.457031 4.3125 -1.75 C 3.039062 -3.050781 2.40625 -4.921875 2.40625 -7.359375 L 2.40625 -17.0625 L 4.84375 -17.0625 L 4.84375 -7.453125 C 4.84375 -3.796875 6.445312 -1.96875 9.65625 -1.96875 C 11.21875 -1.96875 12.410156 -2.421875 13.234375 -3.328125 C 14.066406 -4.234375 14.484375 -5.609375 14.484375 -7.453125 L 14.484375 -17.0625 L 16.84375 -17.0625 L 16.84375 -7.359375 C 16.84375 -4.910156 16.207031 -3.039062 14.9375 -1.75 C 13.675781 -0.457031 11.90625 0.1875 9.625 0.1875 Z M 9.625 0.1875 "/></g></g></g><g fill="#ff5722" fill-opacity="1"><g transform="translate(150.819218, 64.650317)"><g><path d="M 2.5625 -17.0625 L 9.75 -17.0625 C 11.550781 -17.0625 13.148438 -16.703125 14.546875 -15.984375 C 15.941406 -15.273438 17.023438 -14.273438 17.796875 -12.984375 C 18.578125 -11.691406 18.96875 -10.207031 18.96875 -8.53125 C 18.96875 -6.851562 18.578125 -5.367188 17.796875 -4.078125 C 17.023438 -2.785156 15.941406 -1.78125 14.546875 -1.0625 C 13.148438 -0.351562 11.550781 0 9.75 0 L 2.5625 0 Z M 9.609375 -2.125 C 10.984375 -2.125 12.191406 -2.390625 13.234375 -2.921875 C 14.285156 -3.460938 15.097656 -4.210938 15.671875 -5.171875 C 16.242188 -6.140625 16.53125 -7.257812 16.53125 -8.53125 C 16.53125 -9.800781 16.242188 -10.914062 15.671875 -11.875 C 15.097656 -12.84375 14.285156 -13.59375 13.234375 -14.125 C 12.191406 -14.664062 10.984375 -14.9375 9.609375 -14.9375 L 5 -14.9375 L 5 -2.125 Z M 9.609375 -2.125 "/></g></g></g><g fill="#ff5722" fill-opacity="1"><g transform="translate(175.826912, 64.650317)"><g><path d="M 2.5625 -17.0625 L 5 -17.0625 L 5 0 L 2.5625 0 Z M 2.5625 -17.0625 "/></g></g></g><g fill="#ff5722" fill-opacity="1"><g transform="translate(188.257641, 64.650317)"><g><path d="M 10.265625 0.1875 C 8.535156 0.1875 6.976562 -0.1875 5.59375 -0.9375 C 4.21875 -1.695312 3.132812 -2.738281 2.34375 -4.0625 C 1.5625 -5.394531 1.171875 -6.882812 1.171875 -8.53125 C 1.171875 -10.175781 1.5625 -11.660156 2.34375 -12.984375 C 3.132812 -14.316406 4.21875 -15.359375 5.59375 -16.109375 C 6.976562 -16.867188 8.535156 -17.25 10.265625 -17.25 C 11.972656 -17.25 13.515625 -16.867188 14.890625 -16.109375 C 16.273438 -15.359375 17.359375 -14.320312 18.140625 -13 C 18.921875 -11.675781 19.3125 -10.1875 19.3125 -8.53125 C 19.3125 -6.875 18.921875 -5.382812 18.140625 -4.0625 C 17.359375 -2.738281 16.273438 -1.695312 14.890625 -0.9375 C 13.515625 -0.1875 11.972656 0.1875 10.265625 0.1875 Z M 10.265625 -1.96875 C 11.515625 -1.96875 12.640625 -2.253906 13.640625 -2.828125 C 14.640625 -3.398438 15.425781 -4.179688 16 -5.171875 C 16.582031 -6.171875 16.875 -7.289062 16.875 -8.53125 C 16.875 -9.769531 16.582031 -10.882812 16 -11.875 C 15.425781 -12.875 14.640625 -13.660156 13.640625 -14.234375 C 12.640625 -14.804688 11.515625 -15.09375 10.265625 -15.09375 C 9.015625 -15.09375 7.878906 -14.804688 6.859375 -14.234375 C 5.847656 -13.660156 5.050781 -12.875 4.46875 -11.875 C 3.894531 -10.882812 3.609375 -9.769531 3.609375 -8.53125 C 3.609375 -7.289062 3.894531 -6.171875 4.46875 -5.171875 C 5.050781 -4.179688 5.847656 -3.398438 6.859375 -2.828125 C 7.878906 -2.253906 9.015625 -1.96875 10.265625 -1.96875 Z M 10.265625 -1.96875 "/></g></g></g></svg>