<?xml version="1.0" encoding="UTF-8"?>
<svg id="Layer_1" data-name="Layer 1" xmlns="http://www.w3.org/2000/svg" viewBox="0 0 20 12">
  <path d="M9,2h10c.27,0,.52-.11,.71-.29,.19-.19,.29-.44,.29-.71s-.11-.52-.29-.71c-.19-.19-.44-.29-.71-.29H9c-.27,0-.52,.11-.71,.29-.19,.19-.29,.44-.29,.71s.11,.52,.29,.71c.19,.19,.44,.29,.71,.29Zm10,8H1c-.27,0-.52,.11-.71,.29-.19,.19-.29,.44-.29,.71s.11,.52,.29,.71c.19,.19,.44,.29,.71,.29H19c.27,0,.52-.11,.71-.29s.29-.44,.29-.71-.11-.52-.29-.71-.44-.29-.71-.29h0ZM1,7H19c.27,0,.52-.11,.71-.29,.19-.19,.29-.44,.29-.71s-.11-.52-.29-.71c-.19-.19-.44-.29-.71-.29H1c-.27,0-.52,.11-.71,.29-.19,.19-.29,.44-.29,.71s.11,.52,.29,.71c.19,.19,.44,.29,.71,.29Z"/>
</svg>