<?xml version="1.0" encoding="UTF-8"?>
<svg id="Layer_1" data-name="Layer 1" xmlns="http://www.w3.org/2000/svg" viewBox="0 0 23 19">
  <defs>
    <style>
      .cls-1 {
        fill: orange;
      }
    </style>
  </defs>
  <path class="cls-1" d="M23,2.2c-.9,.4-1.8,.6-2.7,.8,1-.6,1.7-1.5,2.1-2.6-.9,.6-1.9,.9-3,1.2-.9-.9-2.1-1.5-3.4-1.5-2.6,0-4.7,2.2-4.7,4.8s0,.7,.1,1.1C7.4,5.7,3.9,3.8,1.6,.9c-.4,.7-.6,1.5-.6,2.4,0,1.7,.8,3.1,2.1,4-.8,0-1.5-.2-2.1-.6H.9c0,2.4,1.6,4.3,3.8,4.8-.4,.1-.8,.2-1.2,.2s-.6,0-.9,0c.6,1.9,2.3,3.3,4.4,3.3-1.6,1.3-3.6,2-5.8,2s-.8,0-1.1,0c2.1,1.4,4.6,2.2,7.2,2.2,8.7,0,13.4-7.3,13.4-13.6s0-.4,0-.6c.9-.7,1.7-1.5,2.4-2.5Z"/>
</svg>